<?xml version="1.0" standalone="no"?>
<!DOCTYPE svg PUBLIC "-//W3C//DTD SVG 20010904//EN"
 "http://www.w3.org/TR/2001/REC-SVG-20010904/DTD/svg10.dtd">
<svg version="1.0" xmlns="http://www.w3.org/2000/svg"
 width="128.000000pt" height="128.000000pt" viewBox="0 0 128.000000 128.000000"
 preserveAspectRatio="xMidYMid meet">

<g transform="translate(0.000000,128.000000) scale(0.100000,-0.100000)"
fill="#000000" stroke="none">
<path d="M699 1211 c-16 -16 -29 -37 -29 -46 0 -21 41 -95 52 -95 5 0 6 -11 2
-24 -4 -18 4 -34 35 -70 25 -28 38 -52 34 -62 -3 -8 -27 -26 -53 -39 -51 -26
-90 -67 -90 -95 0 -9 9 -25 19 -34 13 -12 22 -37 26 -75 11 -109 27 -226 31
-243 4 -12 0 -18 -11 -18 -11 0 -15 5 -12 14 3 8 2 16 -3 18 -5 2 -15 27 -23
57 -8 30 -17 49 -21 43 -4 -6 -4 -22 0 -35 8 -34 -15 -46 -37 -19 -9 12 -22
22 -29 22 -6 0 -8 5 -5 10 4 6 -15 42 -42 81 -26 39 -60 94 -74 123 -15 28
-35 58 -44 66 -18 14 -18 14 0 -15 l18 -30 -31 32 c-18 18 -32 37 -32 44 0 6
-6 9 -12 6 -7 -3 -21 -8 -30 -12 -11 -4 -18 -3 -18 5 0 6 4 9 9 5 5 -3 12 -1
16 5 3 5 0 10 -8 10 -16 0 -57 -41 -57 -58 0 -7 -7 -12 -16 -12 -11 0 -14 -5
-10 -17 4 -10 4 -14 0 -11 -6 7 -94 -102 -94 -116 0 -4 -9 -17 -21 -29 -18
-20 -20 -30 -14 -96 4 -41 13 -87 21 -102 8 -16 14 -35 14 -44 0 -8 5 -15 10
-15 6 0 10 -8 10 -17 0 -16 2 -16 11 -3 9 12 10 11 6 -6 -2 -12 0 -29 5 -38 8
-14 11 -14 30 4 30 27 40 25 34 -7 -2 -16 -5 -32 -5 -37 -1 -5 -8 -3 -16 4
-30 25 -16 -10 18 -44 35 -36 100 -86 111 -86 3 0 11 12 17 26 l10 27 24 -23
c13 -12 28 -19 34 -16 5 4 29 2 52 -3 46 -10 72 -3 126 37 40 29 47 19 44 -66
l-2 -64 43 7 c115 18 234 74 245 115 3 12 11 16 20 13 13 -5 13 -2 4 14 -8 16
-7 25 8 42 12 14 22 18 26 11 3 -5 1 -10 -6 -10 -8 0 -8 -4 1 -15 11 -13 14
-13 26 2 7 10 14 34 14 53 0 43 25 128 44 149 35 40 25 349 -13 437 -14 31
-30 46 -63 63 -24 11 -49 21 -56 21 -6 0 -16 9 -22 20 -14 27 -22 25 -60 -10
-37 -35 -66 -39 -75 -9 -5 14 1 28 19 46 14 14 26 29 26 34 0 4 3 14 6 23 4
11 1 14 -14 11 -11 -2 -23 3 -26 11 -3 8 -10 14 -16 14 -14 0 -13 -27 1 -32 7
-2 9 -13 5 -26 -8 -25 -26 -30 -26 -7 0 8 -8 15 -17 15 -13 0 -14 3 -5 12 18
18 15 28 -9 28 -16 0 -19 4 -14 20 5 15 0 22 -19 29 -46 18 -4 81 54 81 19 0
31 -10 48 -40 12 -21 22 -47 22 -57 0 -10 9 -26 20 -36 19 -16 20 -16 20 4 0
15 -5 19 -15 15 -17 -6 -19 16 -5 49 6 16 9 17 13 5 15 -42 17 -41 12 4 -5 48
-18 76 -37 76 -5 0 -16 7 -24 15 -9 9 -34 15 -60 15 -37 0 -51 -6 -75 -29z
m-334 -421 c3 -5 1 -10 -4 -10 -6 0 -11 5 -11 10 0 6 2 10 4 10 3 0 8 -4 11
-10z m57 -79 c15 -29 32 -59 39 -67 9 -11 8 -15 -5 -20 -16 -6 -22 -29 -8 -37
4 -2 1 -2 -7 0 -13 3 -12 -10 3 -48 5 -11 1 -18 -13 -22 -14 -3 -21 0 -21 9 0
7 -6 11 -12 9 -7 -3 -18 6 -25 20 -6 14 -7 23 -2 19 9 -5 13 15 10 46 -2 13
-1 13 8 0 5 -8 12 -12 15 -9 8 7 -5 49 -15 49 -5 0 -9 9 -9 21 0 13 -4 18 -12
13 -8 -5 -9 0 -4 17 5 13 8 32 9 42 2 29 21 14 49 -42z m48 -11 c0 -5 -4 -10
-10 -10 -5 0 -10 5 -10 10 0 6 5 10 10 10 6 0 10 -4 10 -10z m-164 -33 c11 4
14 -8 14 -62 0 -38 -4 -64 -9 -60 -5 3 -16 -4 -25 -16 -14 -20 -13 -23 10 -41
29 -23 32 -48 5 -48 -23 0 -71 54 -70 78 0 14 2 13 9 -3 7 -16 9 -13 9 17 1
20 4 45 8 55 7 17 6 17 -11 0 -10 -10 -21 -15 -24 -12 -8 7 29 34 48 35 8 0
21 9 27 19 10 15 9 20 -2 25 -9 3 -15 -1 -15 -9 0 -8 -4 -15 -10 -15 -6 0 -5
11 2 26 7 15 14 22 16 16 2 -6 10 -8 18 -5z m191 -79 c-3 -7 -5 -2 -5 12 0 14
2 19 5 13 2 -7 2 -19 0 -25z m33 -118 c0 -5 -2 -10 -4 -10 -3 0 -8 5 -11 10
-3 6 -1 10 4 10 6 0 11 -4 11 -10z m65 -10 c3 -5 1 -10 -4 -10 -6 0 -11 5 -11
10 0 6 2 10 4 10 3 0 8 -4 11 -10z m-388 -62 c-3 -7 -5 -2 -5 12 0 14 2 19 5
13 2 -7 2 -19 0 -25z m861 -10 c-5 -18 -12 -41 -15 -50 -3 -10 -12 -18 -20
-18 -11 0 -13 9 -9 38 3 20 5 43 6 50 0 6 11 12 24 12 23 0 24 -2 14 -32z
m-418 7 c7 -8 8 -15 2 -15 -5 0 -15 7 -22 15 -7 8 -8 15 -2 15 5 0 15 -7 22
-15z m-390 -27 c0 -5 -7 -3 -15 6 -8 8 -15 18 -15 22 0 3 7 1 15 -6 8 -7 15
-17 15 -22z m210 12 c0 -5 -7 -7 -15 -4 -8 4 -15 8 -15 10 0 2 7 4 15 4 8 0
15 -4 15 -10z m241 -73 c8 -31 -4 -77 -21 -77 -5 0 -10 8 -10 18 -1 15 -2 15
-15 -2 -14 -18 -15 -17 -15 25 0 70 45 96 61 36z m-306 -36 c-10 -61 -21 -57
-17 6 3 37 7 52 14 45 6 -6 7 -27 3 -51z m630 30 c3 -5 1 -12 -5 -16 -5 -3
-10 1 -10 9 0 18 6 21 15 7z m-480 -21 c3 -5 1 -10 -4 -10 -6 0 -11 5 -11 10
0 6 2 10 4 10 3 0 8 -4 11 -10z m-195 -146 c0 -3 -7 -1 -15 6 -8 7 -15 17 -15
22 0 5 7 3 15 -6 8 -8 15 -18 15 -22z"/>
<path d="M471 1122 c-28 -23 -34 -36 -39 -81 -4 -42 0 -60 18 -93 19 -34 21
-43 10 -63 -7 -13 -10 -30 -7 -39 9 -23 58 -44 115 -51 51 -6 52 -5 65 27 13
31 12 35 -11 66 -24 31 -26 32 -49 16 -15 -9 -34 -13 -49 -10 -20 5 -24 3 -24
-14 0 -17 4 -20 23 -15 12 4 33 14 45 22 23 14 24 13 18 -6 -3 -12 -9 -30 -12
-41 -6 -21 -38 -27 -64 -10 -14 9 -43 166 -34 182 3 5 16 8 29 8 32 0 23 26
-11 34 -23 6 -24 7 -8 31 20 31 59 33 75 4 8 -17 8 -23 -1 -29 -14 -9 -6 -40
10 -40 17 0 24 31 11 51 -6 11 -7 19 -2 19 13 0 50 -119 40 -126 -5 -3 -9 -12
-9 -21 0 -12 3 -13 14 -4 20 17 28 75 16 120 -24 88 -103 118 -169 63z"/>
<path d="M770 1128 l-25 -10 23 -11 c25 -11 46 1 34 19 -5 8 -15 8 -32 2z"/>
<path d="M580 1000 c-1 -3 -3 -16 -6 -30 -3 -21 -2 -22 7 -7 6 10 8 23 5 30
-2 7 -5 10 -6 7z"/>
<path d="M505 950 c3 -5 18 -10 33 -9 24 0 25 1 7 9 -28 12 -47 12 -40 0z"/>
</g>
</svg>
